<svg xmlns="http://www.w3.org/2000/svg" width="25" height="24" fill="none" viewBox="0 0 25 24"><mask id="KYZjwUMYt0a" width="21" height="21" x="2" y="1" maskUnits="userSpaceOnUse" style="mask-type:alpha"><path fill="#D9D9D9" fill-rule="evenodd" d="M23 1H2v21h21zM12.5 6a3 3 0 0 0-3 3v1a3 3 0 1 0 6 0V9a3 3 0 0 0-3-3m0 14a7.99 7.99 0 0 0 6.286-3.05A5 5 0 0 0 14.824 15h-4.648a5 5 0 0 0-3.962 1.95A7.99 7.99 0 0 0 12.5 20" clip-rule="evenodd"/></mask><g mask="url(#KYZjwUMYt0a)"><path fill="#30e849" stroke="#30e849" stroke-linecap="round" stroke-miterlimit="10" stroke-width="1.5" d="M12.5 21.25a9.25 9.25 0 1 0 0-18.5 9.25 9.25 0 0 0 0 18.5Z"/></g></svg>